<svg id="Layer_1" enable-background="new 0 0 480.075 480.075" height="512" viewBox="0 0 480.075 480.075" width="512" xmlns="http://www.w3.org/2000/svg"><g><path d="m476.438 399.363c-3.68-2.452-8.646-1.457-11.094 2.219-8.677 13.016-17.49 19.897-26.195 20.454-4.947.317-7.638-1.395-12.755-4.987-4.78-3.355-10.729-7.532-19.958-8.938-17.147-2.614-31.628 7.91-44.401 17.193-17.702 12.865-29.975 21.778-46.99 4.92 67.782-49.958 121.814-114.543 156.223-180.718 25.81-49.633-11.63-95.22-28.925-112.516l-24.721-24.721c-11.008-11.006-28.822-11.009-39.831 0l-65.854 65.855c-11.008 11.006-11.009 28.821-.001 39.831l10.463 10.463c10.982 10.98 28.848 10.981 39.831 0l52.416-52.418c3.124-3.125 3.124-8.189 0-11.314-3.125-3.123-8.189-3.123-11.314 0l-52.418 52.418c-4.742 4.743-12.46 4.745-17.202 0l-10.463-10.463c-4.755-4.753-4.755-12.449 0-17.202l65.855-65.856c4.753-4.753 12.448-4.754 17.203.001l24.721 24.72c14.802 14.804 46.971 53.578 26.044 93.822-46.049 88.556-126.41 168.917-214.967 214.967-40.23 20.919-78.988-11.215-93.804-26.026l-24.738-24.74c-4.755-4.753-4.755-12.449 0-17.202l65.855-65.856c4.753-4.753 12.449-4.754 17.202.001l10.463 10.463c4.429 4.428 4.719 11.449.877 16.221-.418.369-.797.784-1.134 1.239l-49.172 49.171c-3.124 3.125-3.124 8.189 0 11.314 3.125 3.123 8.189 3.123 11.314 0l46.886-46.887c53.006 10.571 116.57-43.329 134.788-95.164 1.466-4.169-.726-8.735-4.894-10.2-4.17-1.464-8.735.727-10.2 4.894-15.36 43.697-67.704 88.866-109.984 85.697 2.677-9.5.292-20.138-7.168-27.6l-10.463-10.463c-11.008-11.006-28.822-11.009-39.831 0l-65.854 65.855c-11.008 11.006-11.009 28.821-.001 39.831l24.721 24.721c31.455 31.455 72.97 49.49 112.516 28.925 17.729-9.219 35.285-19.864 52.391-31.682 10.069 10.662 20.419 15.919 31.398 15.919 28.272 0 49.115-34.921 70.75-31.596 12.925 1.967 18.013 15.24 36.145 14.074 13.947-.892 26.896-10.159 38.486-27.546 2.453-3.676 1.459-8.643-2.216-11.093z"/><path d="m197.168 266.688c17.956 3.63 30.93-16.912 19.943-31.583-4.837-6.458-8.466-13.652-10.784-21.385-1.271-4.231-5.726-6.634-9.962-5.364-4.231 1.27-6.633 5.729-5.364 9.962 2.861 9.537 7.337 18.412 13.304 26.379 2.208 2.948-.411 7.019-3.969 6.308-23.13-4.673-41.244-18.337-51.005-38.475-1.338-2.759-4.134-4.511-7.199-4.511h-110.132c-8.822 0-16-7.178-16-16v-160c0-8.822 7.178-16 16-16h212c8.822 0 16 7.178 16 16v160c0 4.967-2.251 9.57-6.175 12.629-3.484 2.717-4.106 7.744-1.391 11.229 2.717 3.483 7.743 4.107 11.229 1.391 7.84-6.113 12.337-15.315 12.337-25.248v-160c0-17.645-14.355-32-32-32h-212c-17.645 0-32 14.355-32 32v160c0 17.645 14.355 32 32 32h105.288c12.334 21.984 33.89 37.417 59.88 42.668z"/><path d="m183.999 174.019c4.418 0 8-3.582 8-8v-107c0-11.028-8.972-20-20-20h-75.999c-11.028 0-20 8.972-20 20v107c0 11.028 8.972 20 20 20h7.49c8.803 0 16.69-5.896 19.183-14.341l11.326-38.389 11.327 38.389c1.25 4.237 5.696 6.66 9.937 5.409 4.238-1.25 6.659-5.699 5.409-9.937l-19-64.396c-1.004-3.401-4.127-5.736-7.673-5.736-3.547 0-6.67 2.335-7.673 5.736l-18.999 64.395c-.498 1.689-2.076 2.869-3.837 2.869h-7.49c-2.206 0-4-1.794-4-4v-107c0-2.206 1.794-4 4-4h75.999c2.206 0 4 1.794 4 4v107c0 4.419 3.582 8.001 8 8.001z"/></g></svg>