<svg id="Layer_1" viewBox="0 0 512 512" xmlns="http://www.w3.org/2000/svg" data-name="Layer 1"><path d="m482.573 191.526c0-17.189-5.957-33.997-16.774-47.328-9.803-12.081-23.201-20.873-38.061-25.053-5.197-24.576-27.137-42.635-52.64-42.635-2.507 0-5.033.18-7.554.536-22.067-44.527-67.759-73.046-117.709-73.046-60.246 0-112.937 41.458-127.445 99.379-3.66-.487-7.322-.733-10.942-.733-45.227 0-82.021 36.807-82.021 82.049 0 20.578 7.653 40.26 21.549 55.418 12.565 13.706 29.242 22.643 47.417 25.556v3.612c0 8.205 5.312 15.124 13.204 17.214l18.361 4.916c2.371 7.608 5.417 14.972 9.089 21.967l-9.489 16.426c-4.09 7.072-2.962 15.729 2.821 21.556l24.321 24.321c5.793 5.793 14.456 6.928 21.554 2.823l10.338-5.973v78.414l-25.914 17.521c-3.927-3.359-9.019-5.395-14.58-5.395-12.387 0-22.464 10.077-22.464 22.465s10.077 22.464 22.464 22.464 22.464-10.077 22.464-22.464c0-2.495-.415-4.893-1.169-7.136l28.551-19.305c1.649-1.115 2.637-2.977 2.637-4.967v-82.213c5.197 2.4 10.566 4.472 16.066 6.187l4.919 18.374c2.132 7.891 9.048 13.191 17.211 13.191h11.211v54.223c-9.485 2.63-16.469 11.335-16.469 21.646 0 12.387 10.077 22.464 22.464 22.464s22.464-10.077 22.464-22.464c0-10.311-6.985-19.016-16.469-21.646v-54.223h11.211c8.179 0 15.107-5.301 17.244-13.204l4.916-18.361c5.499-1.714 10.859-3.783 16.038-6.178v82.204c0 1.991.989 3.853 2.639 4.968l28.576 19.305c-.754 2.243-1.168 4.641-1.168 7.135 0 12.387 10.078 22.464 22.465 22.464s22.464-10.077 22.464-22.464-10.077-22.465-22.464-22.465c-5.562 0-10.654 2.036-14.582 5.396l-25.94-17.524v-78.42l10.364 5.98c7.117 4.114 15.773 2.974 21.524-2.819l24.368-24.34c5.769-5.812 6.896-14.468 2.808-21.537l-9.491-16.429c3.671-6.996 6.718-14.359 9.089-21.968l18.309-4.908c7.929-2.089 13.255-9.009 13.255-17.221v-2.844c38.538-3.174 68.967-35.589 68.967-74.911zm-334.474 304.483c-5.775 0-10.474-4.698-10.474-10.474s4.699-10.475 10.474-10.475 10.474 4.699 10.474 10.475-4.699 10.474-10.474 10.474zm118.361-10.474c0 5.775-4.699 10.474-10.474 10.474s-10.474-4.698-10.474-10.474 4.699-10.475 10.474-10.475 10.474 4.699 10.474 10.475zm97.441-10.475c5.775 0 10.474 4.699 10.474 10.475s-4.699 10.474-10.474 10.474-10.475-4.698-10.475-10.474 4.699-10.475 10.475-10.475zm37.715-205.78c0 2.727-1.695 4.935-4.344 5.632l-21.572 5.783c-2.039.547-3.64 2.125-4.216 4.155-2.549 8.991-6.126 17.637-10.633 25.695-1.032 1.844-1.016 4.095.041 5.925l11.17 19.336c1.365 2.358.997 5.142-.918 7.07l-24.368 24.34c-1.902 1.918-4.663 2.274-7.035.901l-19.36-11.169c-1.832-1.056-4.085-1.071-5.93-.035-8.017 4.498-16.65 8.074-25.66 10.63-2.031.576-3.609 2.178-4.156 4.217l-5.779 21.586c-.711 2.63-2.934 4.329-5.665 4.329h-34.413c-2.713 0-4.925-1.699-5.632-4.315l-5.783-21.6c-.546-2.039-2.125-3.641-4.156-4.217-8.994-2.551-17.64-6.129-25.695-10.634-.91-.509-1.918-.763-2.926-.763-1.036 0-2.072.269-2.999.804l-19.334 11.17c-2.369 1.371-5.145 1.008-7.075-.92l-24.305-24.306c-1.933-1.947-2.301-4.73-.935-7.092l11.168-19.333c1.057-1.83 1.073-4.081.041-5.925-4.506-8.059-8.083-16.704-10.633-25.695-.576-2.031-2.178-3.609-4.217-4.155l-21.616-5.788c-2.611-.691-4.299-2.9-4.299-5.627v-34.413c0-2.73 1.699-4.954 4.314-5.661l21.6-5.782c2.04-.546 3.642-2.124 4.218-4.155 2.539-8.955 6.116-17.591 10.633-25.668 1.031-1.843 1.016-4.093-.039-5.922l-11.172-19.366c-1.364-2.357-1.002-5.123.92-7.045l24.322-24.321c1.939-1.939 4.716-2.313 7.076-.947l19.333 11.168c1.825 1.053 4.07 1.073 5.912.049 8.197-4.557 16.841-8.125 25.692-10.607 2.039-.571 3.625-2.177 4.173-4.222l5.779-21.588c.715-2.646 2.927-4.355 5.636-4.355h34.413c2.726 0 4.949 1.71 5.661 4.343l5.783 21.601c.548 2.045 2.134 3.65 4.172 4.222 8.963 2.514 17.591 6.079 25.644 10.596 1.844 1.035 4.098 1.021 5.929-.035l19.366-11.172c2.359-1.362 5.124-1.002 7.046.921l24.35 24.351c1.922 1.922 2.284 4.687.917 7.05l-11.169 19.36c-1.055 1.829-1.07 4.079-.039 5.922 4.517 8.077 8.094 16.713 10.633 25.668.576 2.03 2.177 3.608 4.216 4.155l21.567 5.781c2.642.71 4.349 2.933 4.349 5.662v34.413zm11.99-14.869v-19.544c0-8.186-5.314-15.114-13.23-17.243l-18.335-4.914c-2.365-7.583-5.412-14.939-9.089-21.943l9.49-16.45c4.1-7.09 2.966-15.741-2.822-21.527l-24.349-24.35c-5.787-5.788-14.438-6.922-21.522-2.825l-16.453 9.491c-6.996-3.68-14.352-6.72-21.947-9.068l-4.917-18.366c-2.137-7.906-9.065-13.218-17.24-13.218h-34.413c-8.158 0-15.075 5.312-17.215 13.231l-4.913 18.354c-7.523 2.33-14.885 5.371-21.963 9.072l-16.432-9.492c-7.089-4.102-15.751-2.955-21.556 2.85l-24.321 24.321c-5.788 5.786-6.921 14.438-2.825 21.521l9.494 16.456c-3.677 7.004-6.724 14.359-9.089 21.941l-18.376 4.92c-7.889 2.133-13.189 9.061-13.189 17.239v18.658c-32.908-6.129-56.977-34.643-56.977-68.831 0-38.63 31.416-70.059 70.03-70.059 4.73 0 9.554.493 14.339 1.467 3.242.659 6.408-1.435 7.069-4.678 11.268-55.299 60.465-95.435 116.979-95.435 46.826 0 89.532 27.577 108.8 70.257 1.177 2.607 4.029 4.018 6.818 3.374 3.208-.744 6.453-1.121 9.645-1.121 20.901 0 38.721 15.601 41.451 36.288.33 2.496 2.184 4.521 4.642 5.068 28.62 6.368 49.392 32.305 49.392 61.669 0 32.715-25.055 59.752-56.977 62.886zm-157.62-90.907c-48.821 0-88.54 39.731-88.54 88.568s39.719 88.54 88.54 88.54 88.568-39.719 88.568-88.54-39.731-88.568-88.568-88.568zm0 165.118c-42.209 0-76.55-34.34-76.55-76.55s34.34-76.578 76.55-76.578 76.578 34.353 76.578 76.578-34.353 76.55-76.578 76.55zm6.052-42.392c0 3.312-2.684 5.995-5.995 5.995h-.142c-3.311 0-5.995-2.684-5.995-5.995s2.684-5.995 5.995-5.995h.142c3.311 0 5.995 2.684 5.995 5.995zm46.518-52.514c2.341 2.342 2.341 6.138 0 8.479-1.17 1.171-2.705 1.756-4.239 1.756s-3.069-.585-4.239-1.756c-11.791-11.791-27.459-18.285-44.12-18.285s-32.273 6.466-44.04 18.205c-2.343 2.338-6.14 2.334-8.479-.01s-2.334-6.14.01-8.479c14.03-13.998 32.678-21.707 52.509-21.707s38.543 7.741 52.598 21.797zm-15.817 15.817c2.341 2.341 2.341 6.138 0 8.479-1.17 1.171-2.705 1.756-4.239 1.756s-3.069-.585-4.239-1.756c-7.569-7.568-17.62-11.737-28.302-11.737s-20.681 4.141-28.225 11.659c-2.345 2.337-6.141 2.331-8.479-.014-2.337-2.346-2.331-6.142.015-8.479 9.808-9.774 22.837-15.157 36.689-15.157s26.947 5.415 36.781 15.249zm-15.803 15.831c2.333 2.35 2.321 6.146-.028 8.479-1.169 1.162-2.697 1.742-4.225 1.742-1.541 0-3.082-.59-4.253-1.77-3.315-3.338-7.744-5.176-12.471-5.176s-9.109 1.812-12.4 5.104c-2.341 2.342-6.138 2.342-8.479 0-2.341-2.341-2.341-6.138 0-8.479 5.556-5.557 12.971-8.616 20.879-8.616s15.394 3.095 20.978 8.715z"/></svg>